# AST/ASF file generated using VICON BodyLanguage
# -----------------------------------------------
:version 1.10
:name VICON
:units
  mass 1.0
  length 0.45
  angle deg
:documentation
   .ast/.asf automatically generated from VICON data using
   VICON BodyBuilder and BodyLanguage model FoxedUp or BRILLIANT.MOD
:root
   order TX TY TZ RX RY RZ
   axis XYZ
   position 0 0 0  
   orientation 0 0 0 
:bonedata
  begin
     id 1 
     name lhipjoint
     direction 0.567725 -0.736092 0.368589 
     length 2.42353 
     axis 0 0 0  XYZ
  end
  begin
     id 2 
     name lfemur
     direction 0.34202 -0.939693 0  
     length 7.24894  
     axis 0 0 20  XYZ
    dof rx ry rz
    limits (-160.0 20.0)
           (-70.0 70.0)
           (-60.0 70.0)
  end
  begin
     id 3 
     name ltibia
     direction 0.34202 -0.939693 0   
     length 7.6997   
     axis 0 0 20   XYZ
    dof rx
    limits (-10.0 170.0)
  end
  begin
     id 4 
     name lfoot
     direction 0.100767 -0.276854 0.955614   
     length 2.37556   
     axis -90 7.62852e-016 20   XYZ
    dof rx rz
    limits (-45.0 90.0)
           (-70.0 20.0)
  end
  begin
     id 5 
     name ltoes
     direction 1.53592e-011 -4.21894e-011 1   
     length 1.18363   
     axis -90 7.62852e-016 20   XYZ
    dof rx
    limits (-90.0 20.0)
  end
  begin
     id 6 
     name rhipjoint
     direction -0.556459 -0.742938 0.372017   
     length 2.4012  
     axis 0 0 0  XYZ 
  end
  begin
     id 7 
     name rfemur
     direction -0.34202 -0.939693 0   
     length 7.5119   
     axis 0 0 -20   XYZ
    dof rx ry rz
    limits (-160.0 20.0)
           (-70.0 70.0)
           (-70.0 60.0)
  end
  begin
     id 8 
     name rtibia
     direction -0.34202 -0.939693 0   
     length 7.50155   
     axis 0 0 -20   XYZ
    dof rx
    limits (-10.0 170.0)
 end
 begin
     id 9 
     name rfoot
     direction -0.118427 -0.325376 0.938139   
     length 2.32487  
     axis -90 -7.62852e-016 -20   XYZ
    dof rx rz
    limits (-45.0 90.0)
           (-20.0 70.0)
  end
  begin
     id 10 
     name rtoes
     direction -1.53525e-011 -4.21868e-011 1   
     length 1.15233   
     axis -90 -7.62852e-016 -20   XYZ
    dof rx
    limits (-90.0 20.0)
  end
  begin
     id 11 
     name lowerback
     direction 0.0287568 0.999577 -0.00434502   
     length 2.15243   
     axis 0 0 0   XYZ
    dof rx ry rz
    limits (-20.0 45.0)
           (-30.0 30.0)
           (-30.0 30.0)
  end
  begin
     id 12 
     name upperback
     direction 0.0294009 0.99956 0.00404628   
     length 2.15427   
     axis 0 0 0   XYZ
    dof rx ry rz
    limits (-20.0 45.0)
           (-30.0 30.0)
           (-30.0 30.0)
  end
  begin
     id 13 
     name thorax
     direction 0.0151014 0.999868 0.0059419   
     length 2.14898   
     axis 0 0 0   XYZ
    dof rx ry rz
    limits (-20.0 45.0)
           (-30.0 30.0)
           (-30.0 30.0)
  end
  begin
     id 14 
     name lowerneck
     direction -0.0249197 0.989906 0.139515   
     length 1.6861   
     axis 0 0 0   XYZ
    dof rx ry rz
    limits (-20.0 45.0)
           (-30.0 30.0)
           (-30.0 30.0)
  end
  begin
     id 15 
     name upperneck
     direction 0.0438463 0.988795 -0.142693   
     length 1.71276   
     axis 0 0 0   XYZ
    dof rx ry rz
    limits (-20.0 45.0)
           (-30.0 30.0)
           (-30.0 30.0)
  end
  begin
     id 16
     name head
     direction 0.0148499 0.997845 -0.0639186  
     length 1.7209  
     axis 0 0 0   XYZ
    dof rx ry rz
    limits (-20.0 45.0)
           (-30.0 30.0)
           (-30.0 30.0)
  end
  begin
     id 17 
     name lclavicle
     direction 0.940298 0.323464 -0.105876  
     length 3.9048  
     axis 0 0 0   XYZ
    dof ry rz
    limits (-20.0 10.0)
           (0.0 20.0)
  end
  begin
     id 18 
     name lhumerus
     direction 1 -4.48954e-011 -4.9675e-028   
     length 4.6851   
     axis 180 -30 -90   XYZ
    dof rx ry rz
    limits (-60.0 90.0)
           (-90.0 90.0)
           (-90.0 90.0)
  end
  begin
     id 19
     name lradius
     direction 1 -4.48992e-011 -1.03359e-026   
     length 3.39626   
     axis 180 -30 -90   XYZ
    dof rx
    limits (-10.0 170.0)
  end
  begin
     id 20
     name lwrist
     direction 1 -4.48906e-011 -1.67336e-026   
     length 1.69813   
     axis 9.90442e-015 90 90   XYZ
    dof ry
    limits (-180.0 0.0)
 end
  begin
     id 21 
     name lhand
     direction 1 -4.49006e-011 -3.34673e-026   
     length 0.486078   
     axis 2.1355e-014 90 90   XYZ
    dof rx rz
    limits (-90.0 90.0)
           (-45.0 45.0)
  end
  begin
     id 22 
     name lfingers
     direction 1 -4.48992e-011 -6.69345e-026   
     length 0.391889   
     axis 4.27099e-014 90 90   XYZ
    dof rx
    limits (0.0 90.0)
  end
  begin
     id 23
     name lthumb
     direction 0.707107 -6.34926e-011 0.707107   
     length 0.562676   
     axis -90 45 2.85299e-015   XYZ
    dof rx rz
    limits (-45.0 45.0)
           (-45.0 45.0)
  end
  begin
     id 24 
     name rclavicle
     direction -0.882459 0.414895 -0.221648   
     length 3.44646  
     axis 0 0 0   XYZ 
    dof ry rz
    limits (-10.0 20.0)
           (-20.0 0.0)
  end
  begin
     id 25 
     name rhumerus
     direction -1 -4.48962e-011 -2.37984e-027  
     length 5.55576   
     axis 180 30 90   XYZ
    dof rx ry rz
    limits (-90.0 60.0)
           (-90.0 90.0)
           (-90.0 90.0)
  end
  begin
     id 26 
     name rradius
     direction -1 -4.48982e-011 -6.86791e-027   
     length 3.32774   
     axis 180 30 90   XYZ
    dof rx
    limits (-10.0 170.0)
  end
  begin
     id 27 
     name rwrist
     direction -1 -4.48961e-011 -1.67336e-026   
     length 1.66387   
     axis 9.90442e-015 -90 -90   XYZ
    dof ry
    limits (-180.0 0.0)
  end
  begin
     id 28
     name rhand
     direction -1 -4.4897e-011 -3.34673e-026   
     length 0.507628   
     axis 2.1355e-014 -90 -90   XYZ
    dof rx rz
    limits (-90.0 90.0)
           (-45.0 45.0)
  end
  begin
     id 29
     name rfingers
     direction -1 -4.48854e-011 -6.69345e-026   
     length 0.409263   
     axis 4.27099e-014 -90 -90   XYZ
    dof rx
    limits (0.0 90.0)
  end
  begin
     id 30
     name rthumb
     direction -0.707107 -6.34913e-011 0.707107   
     length 0.587622   
     axis -90 -45 -2.85299e-015   XYZ
    dof rx rz
    limits (-45.0 45.0)
           (-45.0 45.0)
  end
:hierarchy
  begin
    root lhipjoint rhipjoint lowerback
    lhipjoint lfemur
    lfemur ltibia
    ltibia lfoot
    lfoot ltoes
    rhipjoint rfemur
    rfemur rtibia
    rtibia rfoot
    rfoot rtoes
    lowerback upperback
    upperback thorax
    thorax lowerneck lclavicle rclavicle
    lowerneck upperneck
    upperneck head
    lclavicle lhumerus
    lhumerus lradius
    lradius lwrist
    lwrist lhand lthumb
    lhand lfingers
    rclavicle rhumerus
    rhumerus rradius
    rradius rwrist
    rwrist rhand rthumb
    rhand rfingers
  end

#!OML:ASF E:\motion texture\Top Level 1\Subject 1\Session 1\male.ASF
:FULLY-SPECIFIED
:DEGREES
55
root 39.7376 17.785 5.88717 141.055 -82.348 -129.32
lowerback -5.08771 -1.6017 3.57307
upperback -3.05796 -2.3977 2.63764
thorax -0.327498 -1.27068 0.596744
lowerneck -17.5938 -7.27422 -10.0985
upperneck 16.1801 -8.99115 7.9215
head 8.77722 -4.10249 3.14336
rclavicle -1.28465e-014 -4.84538e-015
rhumerus -30.4288 -7.23491 -80.3765
rradius 24.3625
rwrist 12.8581
rhand -11.9484 -25.4171
rfingers 7.12502
rthumb 14.1068 -54.9183
lclavicle -1.28465e-014 -4.84538e-015
lhumerus -34.1762 15.3664 76.7541
lradius 21.2959
lwrist -25.4778
lhand -10.6303 21.1615
lfingers 7.12502
lthumb 15.3766 50.5697
rfemur -15.126 2.28501 28.2501
rtibia 19.9607
rfoot -14.6641 -12.6428
rtoes 6.1687
lfemur -14.1469 -2.43545 -11.9792
ltibia 19.0291
lfoot -12.7148 7.21063
ltoes -1.98705
56
root 39.7217 17.7783 5.87039 140.371 -82.2795 -128.617
lowerback -5.01332 -1.59101 3.68981
upperback -3.03531 -2.38517 2.66415
thorax -0.349255 -1.26578 0.561605
lowerneck -17.6048 -7.27733 -10.0943
upperneck 16.0149 -8.98796 7.95581
head 8.72423 -4.0966 3.15459
rclavicle 6.28657e-015 1.92573e-014
rhumerus -30.529 -7.3036 -80.3107
rradius 24.302
rwrist 12.9052
rhand -11.9335 -25.409
rfingers 7.12502
rthumb 14.1211 -54.9092
lclavicle 6.28657e-015 1.92573e-014
lhumerus -34.1886 15.2224 76.8386
lradius 21.4371
lwrist -25.2848
lhand -10.6498 21.1544
lfingers 7.12502
lthumb 15.3579 50.5641
rfemur -15.0875 2.2099 28.4457
rtibia 20.014
rfoot -14.9103 -12.4952
rtoes 5.65349
lfemur -14.6383 -2.20515 -11.8101
ltibia 19.979
lfoot -13.0063 7.19091
ltoes -2.29911
57
root 39.705 17.7714 5.8534 139.667 -82.2038 -127.9
lowerback -4.93491 -1.57964 3.81324
upperback -3.00953 -2.37175 2.69318
thorax -0.370169 -1.26047 0.525425
lowerneck -17.6107 -7.28151 -10.0914
upperneck 15.844 -8.98626 7.99124
head 8.6688 -4.0916 3.16631
rclavicle 1.54524e-014 -1.27968e-014
rhumerus -30.6259 -7.3565 -80.2498
rradius 24.2529
rwrist 12.9431
rhand -11.9216 -25.4095
rfingers 7.12502
rthumb 14.1326 -54.9089
lclavicle 1.54524e-014 -1.27968e-014
lhumerus -34.2002 15.0612 76.9381
lradius 21.5998
lwrist -25.0641
lhand -10.6737 21.1442
lfingers 7.12502
lthumb 15.3348 50.5556
rfemur -15.0396 2.13149 28.6494
rtibia 20.0648
rfoot -15.1552 -12.346
rtoes 5.12593
lfemur -15.1614 -1.9586 -11.6363
ltibia 20.9858
lfoot -13.3023 7.16886
ltoes -2.6305
58
root 39.6875 17.7641 5.83627 138.954 -82.1214 -127.178
lowerback -4.85257 -1.56589 3.94293
upperback -2.97833 -2.35511 2.72321
thorax -0.387822 -1.25348 0.486932
lowerneck -17.6253 -7.28813 -10.0848
upperneck 15.673 -8.98762 8.0249
head 8.61493 -4.08779 3.17616
rclavicle -1.64805e-014 -1.73937e-015
rhumerus -30.7153 -7.40174 -80.1933
rradius 24.2146
rwrist 12.9765
rhand -11.9132 -25.4137
rfingers 7.12502
rthumb 14.1406 -54.9125
lclavicle -1.64805e-014 -1.73937e-015
lhumerus -34.2047 14.8752 77.0567
lradius 21.7854
lwrist -24.8112
lhand -10.7029 21.1332
lfingers 7.12502
lthumb 15.3067 50.5467
rfemur -14.9819 2.05043 28.8598
rtibia 20.1122
rfoot -15.3986 -12.1965
rtoes 4.59112
lfemur -15.7156 -1.69834 -11.4597
ltibia 22.0455
lfoot -13.6011 7.14596
ltoes -2.97603
59
root 39.6691 17.7567 5.81902 138.23 -82.0328 -126.448
lowerback -4.76479 -1.55147 4.07823
upperback -2.94576 -2.33737 2.7555
thorax -0.407183 -1.24604 0.447816
lowerneck -17.6361 -7.29518 -10.078
upperneck 15.4998 -8.98974 8.05756
head 8.55977 -4.08463 3.18561
rclavicle -1.59758e-014 7.60351e-015
rhumerus -30.8031 -7.4317 -80.1416
rradius 24.1881
rwrist 13.0041
rhand -11.9066 -25.419
rfingers 7.12502
rthumb 14.147 -54.9173
lclavicle -1.59758e-014 7.60351e-015
lhumerus -34.2119 14.6684 77.1916
lradius 21.9939
lwrist -24.5243
lhand -10.7437 21.1185
lfingers 7.12502
lthumb 15.2674 50.535
rfemur -14.9144 1.96645 29.0765
rtibia 20.1556
rfoot -15.6394 -12.0483
rtoes 4.04843
lfemur -16.301 -1.42693 -11.2806
ltibia 23.1535
lfoot -13.9003 7.12174
ltoes -3.33148
60
root 39.6498 17.749 5.80167 137.506 -81.9393 -125.721
lowerback -4.66999 -1.53683 4.21589
upperback -2.91356 -2.31883 2.79058
thorax -0.430765 -1.2383 0.410525
lowerneck -17.6434 -7.30234 -10.0716
upperneck 15.3261 -8.9919 8.08856
head 8.50391 -4.08185 3.19466
rclavicle -2.92369e-014 1.45361e-014
rhumerus -30.8911 -7.4435 -80.0942
rradius 24.1742
rwrist 13.024
rhand -11.9075 -25.4217
rfingers 7.12502
rthumb 14.1462 -54.9201
lclavicle -2.92369e-014 1.45361e-014
lhumerus -34.2248 14.4447 77.3409
lradius 22.2266
lwrist -24.2121
lhand -10.7921 21.0955
lfingers 7.12502
lthumb 15.2208 50.5156
rfemur -14.8374 1.88 29.2971
rtibia 20.1942
rfoot -15.8767 -11.9024
rtoes 3.50058
lfemur -16.9176 -1.14557 -11.1014
ltibia 24.3055
lfoot -14.199 7.09695
ltoes -3.69801
61
root 39.6294 17.7413 5.78428 136.793 -81.8402 -125.008
lowerback -4.56564 -1.52168 4.35415
upperback -2.88489 -2.29879 2.82991
thorax -0.463082 -1.23005 0.377714
lowerneck -17.6415 -7.30968 -10.0701
upperneck 15.1529 -8.99402 8.11888
head 8.44685 -4.07975 3.20447
rclavicle -6.37819e-015 -2.37796e-014
rhumerus -30.9849 -7.43253 -80.049
rradius 24.1756
rwrist 13.034
rhand -11.9116 -25.429
rfingers 7.12502
rthumb 14.1422 -54.9276
lclavicle -6.37819e-015 -2.37796e-014
lhumerus -34.2494 14.2056 77.5059
lradius 22.4831
lwrist -23.8729
lhand -10.8485 21.0712
lfingers 7.12502
lthumb 15.1664 50.4954
rfemur -14.7498 1.79235 29.5208
rtibia 20.2269
rfoot -16.1098 -11.759
rtoes 2.95001
lfemur -17.5624 -0.85609 -10.9232
ltibia 25.4931
lfoot -14.4933 7.07412
ltoes -4.07134
62
root 39.608 17.7334 5.7669 136.105 -81.7356 -124.324
lowerback -4.46092 -1.50603 4.49479
upperback -2.85484 -2.27798 2.87087
thorax -0.494151 -1.22144 0.345245
lowerneck -17.6309 -7.31565 -10.0701
upperneck 14.9754 -8.99459 8.14973
head 8.38691 -4.07729 3.21516
rclavicle -2.73236e-014 -6.93262e-015
rhumerus -31.0769 -7.40082 -80.0113
rradius 24.1908
rwrist 13.0368
rhand -11.9222 -25.4339
rfingers 7.12502
rthumb 14.1319 -54.9333
lclavicle -2.73236e-014 -6.93262e-015
lhumerus -34.2799 13.9515 77.684
lradius 22.7638
lwrist -23.506
lhand -10.9122 21.0462
lfingers 7.12502
lthumb 15.1051 50.475
rfemur -14.6518 1.70466 29.7461
rtibia 20.2535
rfoot -16.3381 -11.6187
rtoes 2.39979
lfemur -18.2335 -0.560405 -10.7474
ltibia 26.7082
lfoot -14.7805 7.05426
ltoes -4.44459
63
root 39.5853 17.7255 5.74956 135.441 -81.6267 -123.665
lowerback -4.35787 -1.48923 4.63885
upperback -2.82143 -2.25571 2.91151
thorax -0.520897 -1.21205 0.310438
lowerneck -17.6171 -7.32265 -10.0691
upperneck 14.7953 -8.9971 8.18088
head 8.32579 -4.07583 3.22558
rclavicle 6.13437e-015 -2.74571e-014
rhumerus -31.1639 -7.35216 -79.9834
rradius 24.2217
rwrist 13.0301
rhand -11.9367 -25.449
rfingers 7.12502
rthumb 14.118 -54.9494
lclavicle 6.13437e-015 -2.74571e-014
lhumerus -34.3112 13.6795 77.8753
lradius 23.069
lwrist -23.1121
lhand -10.9814 21.024
lfingers 7.12502
lthumb 15.0384 50.4578
rfemur -14.5428 1.61648 29.972
rtibia 20.2722
rfoot -16.561 -11.4824
rtoes 1.85078
lfemur -18.9298 -0.259947 -10.575
ltibia 27.9448
lfoot -15.0586 7.03764
ltoes -4.82482
64
root 39.5615 17.7176 5.73225 134.807 -81.5139 -123.04
lowerback -4.25812 -1.47105 4.78611
upperback -2.78257 -2.2318 2.95053
thorax -0.540272 -1.20167 0.271991
lowerneck -17.6061 -7.33003 -10.0652
upperneck 14.614 -9.00067 8.21255
head 8.26488 -4.07468 3.23552
rclavicle 3.51445e-014 -4.29623e-014
rhumerus -31.2428 -7.28796 -79.9675
rradius 24.2692
rwrist 13.0139
rhand -11.9542 -25.4649
rfingers 7.12502
rthumb 14.1011 -54.9664
lclavicle 3.51445e-014 -4.29623e-014
lhumerus -34.3398 13.3911 78.0776
lradius 23.3973
lwrist -22.6941
lhand -11.0577 20.9967
lfingers 7.12502
lthumb 14.9649 50.436
rfemur -14.4221 1.52994 30.1973
rtibia 20.2826
rfoot -16.7771 -11.3516
rtoes 1.30765
lfemur -19.6479 0.0442203 -10.407
ltibia 29.1926
lfoot -15.3242 7.0261
ltoes -5.21273
65
root 39.5363 17.7098 5.71502 134.208 -81.3976 -122.451
lowerback -4.15644 -1.45225 4.93326
upperback -2.74444 -2.20671 2.99059
thorax -0.561341 -1.19076 0.234758
lowerneck -17.5896 -7.33728 -10.0626
upperneck 14.4336 -9.00418 8.24298
head 8.2034 -4.07391 3.24537
rclavicle -7.29602e-015 2.97183e-014
rhumerus -31.3215 -7.20213 -79.9602
rradius 24.3341
rwrist 12.9868
rhand -11.9727 -25.4884
rfingers 7.12502
rthumb 14.0833 -54.9912
lclavicle -7.29602e-015 2.97183e-014
lhumerus -34.3767 13.0899 78.2911
lradius 23.7501
lwrist -22.2543
lhand -11.1409 20.9687
lfingers 7.12502
lthumb 14.8847 50.414
rfemur -14.2896 1.44556 30.4212
rtibia 20.2833
rfoot -16.9858 -11.2263
rtoes 0.771849
lfemur -20.3862 0.350891 -10.244
ltibia 30.4436
lfoot -15.5768 7.01863
ltoes -5.59398
66
root 39.5097 17.7022 5.69787 133.638 -81.2803 -121.894
lowerback -4.04421 -1.4315 5.07768
upperback -2.70819 -2.17778 3.03103
thorax -0.589915 -1.17808 0.19992
lowerneck -17.5824 -7.34692 -10.0573
upperneck 14.2623 -9.01056 8.26881
head 8.14658 -4.07457 3.25262
rclavicle -2.46773e-015 2.75565e-014
rhumerus -31.4011 -7.09924 -79.9597
rradius 24.4189
rwrist 12.9476
rhand -11.9966 -25.5118
rfingers 7.12502
rthumb 14.0603 -55.0162
lclavicle -2.46773e-015 2.75565e-014
lhumerus -34.4195 12.7722 78.5178
lradius 24.127
lwrist -21.7964
lhand -11.2317 20.9396
lfingers 7.12502
lthumb 14.7973 50.3913
rfemur -14.1439 1.36312 30.6422
rtibia 20.2734
rfoot -17.1861 -11.1086
rtoes 0.249299
lfemur -21.1412 0.656932 -10.0876
ltibia 31.6887
lfoot -15.8145 7.01482
ltoes -5.97496
67
root 39.4816 17.6946 5.68094 133.126 -81.159 -121.396
lowerback -3.93634 -1.41038 5.22255
upperback -2.67203 -2.14847 3.07149
thorax -0.616073 -1.16521 0.164676
lowerneck -17.5631 -7.35438 -10.0557
upperneck 14.0884 -9.0145 8.29661
head 8.087 -4.07453 3.26179
rclavicle -8.20142e-015 -9.29318e-015
rhumerus -31.4803 -6.96919 -79.9717
rradius 24.5233
rwrist 12.8961
rhand -12.0197 -25.5357
rfingers 7.12502
rthumb 14.038 -55.0416
lclavicle -8.20142e-015 -9.29318e-015
lhumerus -34.4728 12.4451 78.7527
lradius 24.5301
lwrist -21.3179
lhand -11.3291 20.9149
lfingers 7.12502
lthumb 14.7034 50.3735
rfemur -13.9868 1.2856 30.859
rtibia 20.2533
rfoot -17.3772 -10.9954
rtoes -0.256419
lfemur -21.9099 0.963923 -9.93853
ltibia 32.9164
lfoot -16.0311 7.01937
ltoes -6.36322
68
root 39.452 17.6873 5.66419 132.661 -81.0364 -120.946
lowerback -3.85581 -1.38824 5.37847
upperback -2.61833 -2.12046 3.10111
thorax -0.609664 -1.15215 0.110836
lowerneck -17.5481 -7.36141 -10.0452
upperneck 13.9037 -9.02047 8.33245
head 8.02482 -4.07426 3.27188
rclavicle -2.07326e-015 1.55052e-014
rhumerus -31.5334 -6.83087 -80.0121
rradius 24.6452
rwrist 12.8377
rhand -12.0456 -25.5645
rfingers 7.12502
rthumb 14.013 -55.0722
lclavicle -2.07326e-015 1.55052e-014
lhumerus -34.5058 12.1042 78.9873
lradius 24.9563
lwrist -20.8208
lhand -11.4311 20.8917
lfingers 7.12502
lthumb 14.6052 50.3574
rfemur -13.8172 1.2127 31.0707
rtibia 20.2206
rfoot -17.5567 -10.8884
rtoes -0.74313
lfemur -22.6901 1.26857 -9.7973
ltibia 34.1182
lfoot -16.226 7.02933
ltoes -6.74798
69
root 39.4207 17.6801 5.64763 132.249 -80.9129 -120.55
lowerback -3.76075 -1.36509 5.52207
upperback -2.57661 -2.08913 3.13767
thorax -0.622759 -1.13791 0.0717537
lowerneck -17.5246 -7.36824 -10.0431
upperneck 13.7293 -9.02433 8.36093
head 7.96453 -4.07438 3.28132
rclavicle -5.2973e-015 -2.54693e-014
rhumerus -31.603 -6.65608 -80.0531
rradius 24.7927
rwrist 12.7594
rhand -12.0759 -25.5955
rfingers 7.12502
rthumb 13.9839 -55.1052
lclavicle -5.2973e-015 -2.54693e-014
lhumerus -34.5658 11.7576 79.2371
lradius 25.41
lwrist -20.3118
lhand -11.5394 20.867
lfingers 7.12502
lthumb 14.5008 50.3403
rfemur -13.6352 1.14631 31.2764
rtibia 20.1757
rfoot -17.7255 -10.7882
rtoes -1.20499
lfemur -23.4786 1.57073 -9.66444
ltibia 35.2851
lfoot -16.397 7.04393
ltoes -7.12727
